<?xml version="1.0"?>
<svg version="1.1" xmlns="http://www.w3.org/2000/svg" xmlns:xlink="http://www.w3.org/1999/xlink" width="28.6" height="40.9">
    <desc iVinci="yes" version="4.5" gridStep="20" showGrid="no" snapToGrid="no" codePlatform="0"/>
    <g id="Layer1" opacity="1">
        <g id="Shape1">
            <desc shapeID="1" type="0" basicInfo-basicType="0" basicInfo-roundedRectRadius="12" basicInfo-polygonSides="6" basicInfo-starPoints="5" bounding="rect(-14.3,-20.45,28.6,40.9)" text="" font-familyName="" font-pixelSize="20" font-bold="0" font-underline="0" font-alignment="1" strokeStyle="0" markerStart="0" markerEnd="0" shadowEnabled="0" shadowOffsetX="0" shadowOffsetY="2" shadowBlur="4" shadowOpacity="160" blurEnabled="0" blurRadius="4" transform="matrix(1,0,0,1,14.3,20.45)" pers-center="0,0" pers-size="0,0" pers-start="0,0" pers-end="0,0" locked="0" mesh="" flag=""/>
            <path id="shapePath1" d="M14.3,0 C6.4,0 0,6.4 0,14.3 C0,22.2 14.3,40.9 14.3,40.9 C14.3,40.9 28.6,22.2 28.6,14.3 C28.6,6.4 22.2,0 14.3,0 M14.3,22.2 C9.9,22.2 6.3,18.6 6.3,14.2 C6.3,9.8 9.9,6.2 14.3,6.2 C18.7,6.2 22.3,9.8 22.3,14.2 C22.2,18.7 18.7,22.2 14.3,22.2 Z" style="stroke:none;fill-rule:nonzero;fill:#a2222f;fill-opacity:1;"/>
        </g>
    </g>
</svg>
